<?xml version="1.0" encoding="UTF-8" standalone="no"?>
<!-- Created with Inkscape (http://www.inkscape.org/) -->

<svg
   width="220.24904mm"
   height="116.20748mm"
   viewBox="0 0 220.24904 116.20748"
   version="1.1"
   id="svg1"
   xml:space="preserve"
   xmlns="http://www.w3.org/2000/svg"
   xmlns:svg="http://www.w3.org/2000/svg"><defs
     id="defs1" /><g
     id="layer1"
     transform="translate(-46.933481,-61.558941)"><text
       xml:space="preserve"
       style="font-style:normal;font-variant:normal;font-weight:bold;font-stretch:normal;font-size:27.8972px;font-family:'Times New Roman';-inkscape-font-specification:'Times New Roman, Bold';font-variant-ligatures:normal;font-variant-caps:normal;font-variant-numeric:normal;font-variant-east-asian:normal;fill:#000000;stroke-width:11.6168"
       x="45.56535"
       y="157.38049"
       id="text3"
       transform="scale(1.016953,0.98332961)"><tspan
         id="tspan3"
         style="font-style:normal;font-variant:normal;font-weight:bold;font-stretch:normal;font-size:27.8972px;font-family:'Times New Roman';-inkscape-font-specification:'Times New Roman, Bold';font-variant-ligatures:normal;font-variant-caps:normal;font-variant-numeric:normal;font-variant-east-asian:normal;fill:#000000;stroke-width:11.6168"
         x="45.56535"
         y="157.38049">Housing Pvt. Ltd.</tspan></text><path
       d="m 124.53062,110.27048 0.30945,14.72581 -10.02983,0.10315 V 62.610376 l 10.02983,-0.103149 0.10315,38.449093 h 0.15245 l 11.67147,-12.580484 h 14.13968 l -15.89567,18.146774 17.64464,18.57683 h -13.52988 z m 57.907,-21.894644 h 10.27424 v 36.723604 h -9.62633 v -3.95823 h -0.15244 c -2.46461,3.10306 -7.95618,4.65459 -12.55506,4.65459 -2.59165,0 -5.12174,-0.22281 -7.24135,-1.39272 -6.82797,-3.76867 -9.14305,-12.1485 -9.14305,-17.77467 0,-0.5872 2.06546,-19.094804 15.81271,-18.94893 4.29375,0.04556 9.76015,1.527096 12.47883,4.581288 h 0.15245 z m -8.1001,27.394024 c 2.28674,0 4.20506,-0.79409 5.75496,-2.38227 1.54991,-1.61262 2.32486,-3.70168 2.32486,-6.2672 0,-1.66149 -0.35572,-3.15193 -1.06715,-4.47134 -0.68602,-1.34385 -1.65154,-2.38227 -2.89654,-3.11528 -1.21959,-0.75744 -2.57893,-1.13616 -4.07801,-1.13616 -2.36297,0 -4.3194,0.806305 -5.86931,2.41892 -1.5499,1.61261 -2.32485,3.7139 -2.32485,6.30386 0,2.56552 0.76224,4.65458 2.28674,6.2672 1.5245,1.58818 3.48093,2.38227 5.8693,2.38227 z m 49.96945,-28.09038 c 2.08349,0 3.92559,0.268769 5.5263,0.806307 1.60071,0.513104 3.02357,1.356061 4.26857,2.52887 1.27042,1.172809 2.23593,2.773207 2.89654,4.801189 0.66062,2.027983 0.99093,4.446904 0.99093,7.256764 v 22.02683 h -10.94473 v -20.18979 c 0,-1.97912 -0.24138,-3.54287 -0.72414,-4.69124 -0.45735,-1.172803 -1.11796,-1.979119 -1.98184,-2.418923 -0.83847,-0.464241 -1.96914,-0.696356 -3.392,-0.696356 -1.39745,0 -2.61705,0.305418 -3.65878,0.916263 -1.04174,0.610836 -1.8675,1.563743 -2.4773,2.858726 -0.58439,1.29497 -0.87659,2.87093 -0.87659,4.72789 v 19.49343 l -10.86844,0.10315 V 88.478985 l 9.61722,-0.103149 v 4.434687 h 0.0762 c 1.49908,-1.661481 3.23955,-2.932025 5.22139,-3.811632 1.98184,-0.879607 4.09073,-1.319411 6.32664,-1.319411 z"
       id="text4"
       style="font-size:76.5423px;font-family:Averta-ExtraBold;-inkscape-font-specification:'Averta-ExtraBold, Normal';fill:#000000;stroke:none;stroke-width:0.546;stroke-dasharray:none"
       aria-label="kan" /><rect
       style="fill:#ce19b8;fill-opacity:1;stroke-width:1.32212"
       id="rect5"
       width="56.599213"
       height="64.184677"
       x="50.764248"
       y="61.558941" /><rect
       style="fill:#ffffff;stroke-width:1.32212"
       id="rect4"
       width="11.961689"
       height="48.430256"
       x="72.645378"
       y="68.852654" /></g></svg>
