<?xml version="1.0" encoding="UTF-8" standalone="no"?>
<!-- Created with Inkscape (http://www.inkscape.org/) -->

<svg
   width="25.00099"
   height="25.20125"
   viewBox="0 0 6.6148451 6.6678307"
   version="1.1"
   id="svg1"
   xmlns="http://www.w3.org/2000/svg"
   xmlns:svg="http://www.w3.org/2000/svg">
  <defs
     id="defs1" />
  <g
     id="layer1">
    <g
       id="g3573"
       transform="translate(-4.2511793,-3.7558962)">
      <g
         id="g2261"
         style="stroke-width:0.1;stroke-dasharray:none"
         transform="translate(-0.38465095,-16.548563)">
        <g
           id="g2260"
           transform="translate(-188.61843,16.037012)"
           style="stroke-width:0.1;stroke-dasharray:none">
          <rect
             style="fill:none;fill-opacity:1;stroke:#000000;stroke-width:0.1;stroke-dasharray:none;stroke-dashoffset:0;stroke-opacity:1"
             id="rect2260"
             width="6.5148454"
             height="6.5678306"
             x="193.30426"
             y="4.3174477"
             ry="0.8396374" />
        </g>
      </g>
      <path
         style="fill:#b4277e;fill-opacity:1;stroke:#000000;stroke-width:0.0932458"
         d="m 5.032866,7.6182415 8e-6,-1.922612 0.405791,-0.412442 0.40579,-0.412441 h 0.205726 0.205726 v -0.159902 c 0,-0.170169 0.02499,-0.220814 0.109001,-0.220814 0.06359,0 0.123769,0.06807 0.134627,0.152286 0.0075,0.05807 0.01836,0.06346 0.128089,0.06346 0.115443,0 0.120208,-0.0029 0.128023,-0.07615 0.0104,-0.09734 0.04399,-0.139596 0.111009,-0.139596 0.08955,0 0.132678,0.07697 0.132678,0.236774 v 0.143942 H 8.156707 9.31408 l 0.389424,0.412721 0.389424,0.412721 v 1.922334 1.922334 H 9.901079 9.709227 V 9.3504975 9.1601405 H 9.385478 9.06173 v 0.190357 0.190359 H 8.786996 8.51226 l -0.0071,-0.184012 -0.0071,-0.184014 -0.329743,-0.0071 -0.329744,-0.0071 v 0.191074 0.191074 H 7.550796 7.26302 V 9.3504205 9.1600625 H 6.939272 6.615524 v 0.190358 0.190358 H 6.327843 6.040066 v -0.191095 -0.191093 l -0.317752,0.0071 -0.317753,0.0071 -0.0071,0.184012 -0.0071,0.184014 H 5.211549 5.032739 Z m 1.007209,1.183494 v -0.277595 l -0.317753,0.0071 -0.317753,0.0071 -0.0068,0.27095 -0.0068,0.270953 0.324541,-4.8e-4 0.324542,-4.8e-4 z m 1.223049,0 v -0.277595 l -0.317753,0.0071 -0.317753,0.0071 -0.0068,0.27095 -0.0068,0.270953 0.324541,-4.8e-4 0.324542,-4.8e-4 z m 1.247029,0.01421 c 0,-0.314535 0.02508,-0.295912 -0.383701,-0.284994 l -0.275786,0.0073 -0.0068,0.270799 -0.0068,0.270799 h 0.33653 0.336531 z m 1.193861,-0.0071 -0.0068,-0.270512 H 9.385483 9.073725 l -0.0068,0.270951 -0.0068,0.270951 0.325331,-4.79e-4 0.32533,-4.8e-4 z M 6.040075,7.9799465 V 7.7895815 H 5.716326 5.392578 v 0.173436 c 0,0.09539 0.0072,0.181053 0.01598,0.190358 0.0088,0.0094 0.154479,0.01691 0.323747,0.01691 h 0.307762 z m 1.223049,0 V 7.7895815 H 6.939375 6.615627 v 0.190358 0.190358 h 0.323748 0.323749 z m 1.242084,-0.0063 0.0071,-0.184012 h -0.33679 -0.33679 v 0.191074 0.191074 l 0.329744,-0.0071 0.329744,-0.0071 z m 1.204013,0.0063 V 7.7895815 H 9.385472 9.061725 v 0.190358 0.190358 H 9.385472 9.709221 Z M 5.687213,7.6817315 c 0.0087,-0.02538 0.02101,-0.02538 0.06163,0 0.02792,0.01745 0.104877,0.03173 0.171003,0.03173 H 6.040078 V 7.4342695 7.1550785 H 5.71633 5.392582 v 0.262271 c 0,0.144249 0.0072,0.269886 0.01598,0.279192 0.0295,0.03122 0.267219,0.0186 0.278647,-0.01481 z m 1.21619,0.0063 c 0,-0.01397 0.02159,-0.02538 0.04797,-0.02538 0.02638,0 0.04797,0.01139 0.04797,0.02538 0,0.01395 0.05936,0.02538 0.131899,0.02538 H 7.263139 V 7.4342195 7.1550285 H 6.939381 6.615634 v 0.26227 c 0,0.14425 0.0072,0.269885 0.01598,0.279191 0.02564,0.02714 0.271789,0.01947 0.271789,-0.0085 z m 1.223049,0 c 0,-0.01397 0.02159,-0.02538 0.04797,-0.02538 0.02638,0 0.04797,0.01202 0.04797,0.02664 0,0.0164 0.05301,0.02372 0.137893,0.01904 l 0.137893,-0.0076 0.0068,-0.272846 0.0068,-0.272846 H 8.175207 7.838656 v 0.279192 0.27919 h 0.143887 c 0.07994,0 0.143889,-0.01126 0.143889,-0.02538 z m 1.222776,-0.0057 c 0.03711,-0.02453 0.05323,-0.02453 0.07642,0 0.01616,0.0171 0.08658,0.03108 0.156479,0.03108 h 0.1271 V 7.4342225 7.1550315 H 9.385479 9.061731 v 0.279191 0.279192 h 0.120232 c 0.06612,0 0.1414,-0.01399 0.167271,-0.03108 z m 0.4799,-1.54853 V 5.7978875 L 9.523712,5.4739265 9.218295,5.1499645 H 8.108812 6.999328 v 0.152285 c 0,0.158215 -0.04968,0.253812 -0.131898,0.253812 -0.05164,0 -0.131896,-0.09267 -0.131896,-0.152286 0,-0.044 -0.01598,-0.05077 -0.119907,-0.05077 -0.10392,0 -0.119908,0.0067 -0.119908,0.05077 0,0.05961 -0.08026,0.152286 -0.131897,0.152286 -0.08221,0 -0.131897,-0.0956 -0.131897,-0.253812 V 5.1499275 H 6.069717 5.907511 l -0.31742,0.33664 -0.31742,0.336639 v 0.323267 0.323269 H 7.5509 9.829128 Z M 5.568234,6.0227845 c -0.04188,-0.02186 -0.09522,-0.06204 -0.118516,-0.0893 -0.04092,-0.04785 -0.0394,-0.0527 0.04401,-0.140982 l 0.08638,-0.09143 0.06535,0.0544 c 0.09051,0.07535 0.139951,0.06847 0.24757,-0.03444 0.0511,-0.04886 0.101076,-0.08883 0.111069,-0.08883 0.01004,0 0.05998,0.03998 0.11108,0.08883 0.119114,0.113883 0.186899,0.113352 0.308006,-0.0024 l 0.09547,-0.09129 0.100766,0.09129 c 0.05541,0.05021 0.124976,0.09129 0.154566,0.09129 0.02958,0 0.10398,-0.04055 0.165322,-0.0901 l 0.111522,-0.0901 0.09423,0.0901 c 0.119799,0.114553 0.187991,0.114831 0.306762,0.0012 0.0511,-0.04886 0.101076,-0.08883 0.111069,-0.08883 0.01004,0 0.05998,0.03998 0.111069,0.08883 0.118766,0.113566 0.186963,0.113288 0.306762,-0.0012 l 0.09423,-0.0901 0.111523,0.0901 c 0.06134,0.04955 0.132248,0.0901 0.157579,0.0901 0.02533,0 0.08787,-0.03998 0.138963,-0.08883 0.0511,-0.04886 0.101876,-0.08883 0.112838,-0.08883 0.011,0 0.05556,0.03655 0.0991,0.08122 0.108523,0.111327 0.217319,0.111327 0.325842,0 0.04355,-0.04467 0.09014,-0.08122 0.103526,-0.08122 0.01339,0 0.05453,0.03334 0.09142,0.07408 0.09148,0.101055 0.167844,0.117261 0.265433,0.05632 l 0.07917,-0.04944 0.07761,0.08475 c 0.09309,0.101662 0.08402,0.143369 -0.04652,0.213852 -0.114356,0.06175 -0.254463,0.0665 -0.380959,0.01294 -0.08262,-0.03499 -0.09922,-0.035 -0.16236,-1.93e-4 -0.09022,0.04979 -0.266267,0.04979 -0.356492,0 -0.06314,-0.03484 -0.07974,-0.03483 -0.16236,1.93e-4 -0.11683,0.04948 -0.233055,0.04951 -0.349687,9.6e-5 -0.08236,-0.03488 -0.100717,-0.03488 -0.179576,0 -0.111774,0.04943 -0.234864,0.04943 -0.346639,0 -0.07887,-0.03488 -0.09723,-0.03488 -0.179574,0 -0.116759,0.04944 -0.251049,0.04934 -0.340951,-2.89e-4 -0.06314,-0.03484 -0.07974,-0.03483 -0.16236,1.93e-4 -0.11683,0.04948 -0.233056,0.04951 -0.349688,9.6e-5 -0.08236,-0.03488 -0.100717,-0.03488 -0.179576,0 -0.111774,0.04943 -0.231394,0.04938 -0.348312,-9.6e-5 -0.08262,-0.03499 -0.09922,-0.035 -0.162359,-1.93e-4 -0.09041,0.04989 -0.264949,0.04905 -0.362311,-0.0018 z m 1.1673,-0.98703 c 0,-0.05922 -0.008,-0.06346 -0.119907,-0.06346 -0.111917,0 -0.119908,0.0043 -0.119908,0.06346 0,0.05922 0.008,0.06346 0.119908,0.06346 0.111918,0 0.119907,-0.0043 0.119907,-0.06346 z"
         id="path2386" />
    </g>
  </g>
</svg>
