<?xml version="1.0" encoding="UTF-8" standalone="no"?>
<!-- Created with Inkscape (http://www.inkscape.org/) -->

<svg
   width="25.080214"
   height="25.197235"
   viewBox="0 0 6.6358064 6.6667684"
   version="1.1"
   id="svg1"
   xml:space="preserve"
   inkscape:version="1.3.2 (091e20e, 2023-11-25, custom)"
   sodipodi:docname="Icons.svg"
   xmlns:inkscape="http://www.inkscape.org/namespaces/inkscape"
   xmlns:sodipodi="http://sodipodi.sourceforge.net/DTD/sodipodi-0.dtd"
   xmlns="http://www.w3.org/2000/svg"
   xmlns:svg="http://www.w3.org/2000/svg"><sodipodi:namedview
     id="namedview1"
     pagecolor="#ffffff"
     bordercolor="#000000"
     borderopacity="0.25"
     inkscape:showpageshadow="2"
     inkscape:pageopacity="0.0"
     inkscape:pagecheckerboard="0"
     inkscape:deskcolor="#d1d1d1"
     inkscape:document-units="px"
     inkscape:zoom="0.70710678"
     inkscape:cx="197.28279"
     inkscape:cy="164.75588"
     inkscape:window-width="1366"
     inkscape:window-height="705"
     inkscape:window-x="-8"
     inkscape:window-y="-8"
     inkscape:window-maximized="1"
     inkscape:current-layer="svg1"
     showgrid="false"><inkscape:page
       x="4.4179467e-07"
       y="1.7180398e-07"
       width="6.6358066"
       height="6.6667686"
       id="page31"
       margin="0"
       bleed="0" /></sodipodi:namedview><defs
     id="defs1" /><rect
     style="fill:#ffffff;fill-opacity:1;stroke:#000000;stroke-width:0.092247;stroke-linejoin:round;stroke-miterlimit:6.5;stroke-dasharray:none"
     id="rect632"
     width="84.238304"
     height="126.48006"
     x="-5.3750296"
     y="-52.23259"
     inkscape:export-filename="..\icons previw.pdf"
     inkscape:export-xdpi="96"
     inkscape:export-ydpi="96" /><g
     id="g628"
     transform="translate(-9.7709762,-52.769896)"><g
       id="g587"
       transform="translate(-416.78289,52.792497)"><g
         id="g634"><g
           id="g586"
           transform="translate(426.55453)"
           style="fill:none;stroke:#000000;stroke-width:0.0926042;stroke-dasharray:none"><g
             id="g585"
             transform="matrix(0.412897,0,0,0.47382209,-10.442501,-29.965764)"
             style="fill:none;stroke:#000000;stroke-width:0.209364;stroke-dasharray:none"><rect
               style="fill:none;fill-opacity:1;stroke:#000000;stroke-width:0.209364;stroke-dasharray:none;stroke-dashoffset:0;stroke-opacity:1"
               id="rect584"
               width="15.861971"
               height="13.860832"
               x="25.393881"
               y="63.299629"
               ry="1.7719812" /><path
               style="fill:none;stroke:#000000;stroke-width:0.209364;stroke-dasharray:none"
               d="m 26.65167,75.909304 c -0.252189,-0.09189 -0.358167,-0.253986 -0.358167,-0.547829 0,-0.262932 0.105561,-0.444486 0.298678,-0.513709 0.04563,-0.01635 0.306979,-0.03641 0.580765,-0.04456 l 0.497796,-0.01482 V 72.486223 70.18406 l -0.177814,-0.02101 c -0.203795,-0.02408 -0.324749,-0.07586 -0.419541,-0.179594 -0.05698,-0.06237 -0.06638,-0.115013 -0.06638,-0.372374 0,-0.272211 0.0072,-0.308105 0.07913,-0.390836 0.04378,-0.05039 0.145095,-0.114314 0.22676,-0.143057 0.141992,-0.04997 0.276192,-0.05196 3.514075,-0.05196 h 3.366451 l -0.05437,-0.06812 c -0.08872,-0.111186 -0.0052,-0.182258 0.301799,-0.257115 0.140211,-0.03418 0.242357,-0.07115 0.226993,-0.08217 -0.01535,-0.01102 -0.281819,-0.07869 -0.592114,-0.150393 -0.310293,-0.0717 -0.611114,-0.153522 -0.668493,-0.181825 -0.28184,-0.139019 -0.272306,-0.536198 0.01642,-0.683613 0.110987,-0.05667 0.167521,-0.06259 0.676977,-0.07094 l 0.555875,-0.0091 v -0.255022 c 0,-0.232644 0.0065,-0.258745 0.07376,-0.297442 0.09748,-0.05606 0.145041,-0.05351 0.224919,0.01208 0.05708,0.04687 0.06638,0.09083 0.06638,0.314239 0,0.493702 -0.05843,0.53048 -0.84273,0.53048 -0.526581,0 -0.549287,0.0023 -0.598564,0.06005 -0.106273,0.124571 -0.03274,0.154866 0.923986,0.380732 l 0.885978,0.209162 0.882216,-0.209162 c 0.952622,-0.225857 1.026546,-0.256432 0.920511,-0.380733 -0.04928,-0.05777 -0.07199,-0.06005 -0.598568,-0.06005 -0.784304,0 -0.842726,-0.03678 -0.842726,-0.53048 0,-0.223408 0.0092,-0.267364 0.06638,-0.314239 0.07988,-0.06559 0.127442,-0.06814 0.224923,-0.01208 0.06729,0.0387 0.07376,0.0648 0.07376,0.297442 v 0.255024 l 0.55587,0.0091 c 0.48448,0.0079 0.570136,0.01611 0.666894,0.06361 0.297895,0.146241 0.31336,0.549452 0.02649,0.690949 -0.05737,0.0283 -0.3582,0.110123 -0.668495,0.181825 -0.310293,0.0717 -0.576743,0.139378 -0.592108,0.150393 -0.01535,0.01102 0.08678,0.04799 0.226988,0.08217 0.307103,0.07486 0.390525,0.14593 0.301799,0.257115 l -0.05436,0.06812 h 1.375253 c 1.279121,0 1.385575,0.0036 1.522886,0.05196 0.08167,0.02874 0.182989,0.09266 0.226761,0.143057 0.07186,0.08273 0.07913,0.118625 0.07913,0.390837 0,0.257361 -0.0094,0.310008 -0.06638,0.372373 -0.0948,0.103738 -0.215749,0.155514 -0.419539,0.179586 l -0.17782,0.021 -0.0087,0.923749 c -0.0059,0.626292 -0.0206,0.935473 -0.04555,0.960158 -0.05282,0.05225 -0.228954,0.04519 -0.281156,-0.01128 -0.0346,-0.03741 -0.04431,-0.245812 -0.04515,-0.967338 l -8.06e-4,-0.919653 H 33.39543 28.052397 v 2.316164 2.316162 h 0.330947 0.330951 l 0.0092,-1.795586 c 0.009,-1.751495 0.01085,-1.797087 0.07558,-1.856691 0.134041,-0.123401 0.229115,-0.13533 1.078565,-0.13533 0.874967,0 0.964376,0.01266 1.080074,0.152964 0.06247,0.07575 0.0652,0.144196 0.07408,1.856648 l 0.0092,1.777995 h 3.848717 3.848718 v -1.044862 c 0,-0.977639 0.0037,-1.047763 0.06069,-1.089959 0.07312,-0.05434 0.215847,-0.05896 0.26671,-0.0086 0.02524,0.02499 0.0396,0.36589 0.04555,1.083147 l 0.0087,1.046688 0.4978,0.01482 c 0.273787,0.0082 0.535131,0.0282 0.580762,0.04456 0.193123,0.06922 0.298682,0.250777 0.298682,0.513709 0,0.214714 -0.0555,0.358096 -0.174075,0.449693 -0.180617,0.13953 -0.07464,0.135301 -3.391275,0.135301 -3.066453,0 -3.093248,-4.92e-4 -3.165264,-0.05556 -0.09042,-0.06917 -0.09264,-0.146007 -0.0062,-0.216931 0.06543,-0.05372 0.110625,-0.0545 3.165251,-0.0545 2.623558,0 3.104826,-0.0059 3.137646,-0.03835 0.02405,-0.02378 0.03505,-0.114379 0.02897,-0.238428 l -0.0099,-0.200076 h -6.687092 -6.687088 l -0.0099,0.200076 c -0.0061,0.124049 0.0049,0.21465 0.02897,0.238428 0.03281,0.03247 0.514088,0.03835 3.137646,0.03835 3.054631,0 3.099827,8.01e-4 3.165251,0.0545 0.08638,0.07092 0.08416,0.147763 -0.0062,0.216931 -0.07206,0.05513 -0.09686,0.05554 -3.177616,0.05335 -2.340086,-0.0017 -3.127113,-0.01029 -3.194829,-0.03495 z m 3.981221,-2.844414 -0.0085,-1.737122 -0.696919,-0.0077 c -0.383306,-0.0042 -0.73052,-9.57e-4 -0.771587,0.0073 l -0.07467,0.01504 v 1.711625 c 0,0.941393 0.01,1.719799 0.02214,1.72979 0.01222,0.01 0.363228,0.01817 0.780128,0.01817 h 0.758006 z m -0.626728,0.193367 c -0.02706,-0.02678 -0.04555,-0.109218 -0.04555,-0.203194 0,-0.165014 0.05801,-0.239329 0.188413,-0.241359 0.09381,-0.0015 0.19323,0.130727 0.19323,0.256923 0,0.183784 -0.217343,0.305119 -0.336098,0.18763 z m 9.409072,-3.45866 c 0.03265,-0.0699 0.02305,-0.337539 -0.01423,-0.394672 -0.03377,-0.05181 -0.135967,-0.05271 -6.005597,-0.05271 -5.869626,0 -5.971825,8.79e-4 -6.005597,0.05271 -0.03724,0.05713 -0.04688,0.324776 -0.01419,0.394672 0.01825,0.03908 0.579517,0.0431 6.019808,0.0431 5.440295,0 6.001542,-0.004 6.019811,-0.0431 z m -3.523328,-0.900402 -0.5069,-0.122657 -0.472103,0.113442 c -0.259655,0.06239 -0.478326,0.11835 -0.485932,0.124347 -0.0076,0.006 0.432948,0.01014 0.979003,0.0092 l 0.992833,-0.0017 z m -4.230456,4.737924 c -0.04789,-0.04121 -0.102942,-0.109454 -0.122361,-0.151643 -0.02271,-0.04939 -0.03526,-0.452192 -0.03526,-1.130833 5.8e-5,-1.17922 0.0021,-1.190985 0.231735,-1.290241 0.09886,-0.04274 0.196507,-0.05 0.673095,-0.05 0.619289,0 0.730078,0.02059 0.84907,0.157805 0.07017,0.08091 0.07131,0.100079 0.07131,1.20196 v 1.119735 l -0.120017,0.109074 -0.120016,0.109075 h -0.670259 -0.670253 z m 1.285954,-0.674412 v -0.435984 l -0.522688,-0.0075 -0.522687,-0.0075 v 0.450992 0.450992 l 0.522687,-0.0075 0.522688,-0.0075 z m 0.0092,-1.183268 c 0.007,-0.317983 -0.0012,-0.425672 -0.03319,-0.442378 -0.04901,-0.02554 -0.890497,-0.03108 -0.968885,-0.0064 -0.04482,0.01412 -0.05249,0.0799 -0.05249,0.4503 v 0.43376 l 0.522686,-0.0075 0.522692,-0.0075 z m 1.053882,1.836335 -0.11726,-0.09628 v -1.131715 c 0,-1.174917 0.0025,-1.197225 0.142223,-1.297862 0.0973,-0.07005 0.21755,-0.08012 0.843251,-0.07057 0.554415,0.0085 0.571426,0.01044 0.657835,0.07681 0.18329,0.140769 0.181949,0.131492 0.181949,1.262397 0,1.148116 -0.0057,1.185916 -0.195233,1.296736 -0.09043,0.05287 -0.141635,0.05677 -0.746302,0.05677 h -0.649204 z m 1.335569,-0.60577 c 0.0057,-0.240227 -0.0045,-0.409623 -0.02653,-0.443499 -0.03372,-0.05176 -0.06379,-0.05439 -0.540196,-0.0473 l -0.504466,0.0075 -0.0092,0.407537 c -0.005,0.224146 -0.0016,0.423717 0.0076,0.443491 0.01312,0.02812 0.130852,0.03432 0.540208,0.02845 l 0.523404,-0.0075 z m -0.01353,-0.857954 c 0.01098,-0.03372 0.02023,-0.223351 0.02044,-0.421401 3.87e-4,-0.331546 -0.0047,-0.362385 -0.06544,-0.389048 -0.04022,-0.01768 -0.250311,-0.02601 -0.53928,-0.02139 l -0.473382,0.0076 -0.0091,0.442796 -0.0091,0.442796 h 0.527935 c 0.519434,0 0.528256,-9.83e-4 0.547945,-0.06131 z m 1.047915,1.463143 -0.114367,-0.09686 -0.0084,-1.122531 c -0.0091,-1.210669 -0.01023,-1.20166 0.16833,-1.310648 0.08491,-0.05184 0.146349,-0.05795 0.663731,-0.066 0.622545,-0.0097 0.760758,0.0089 0.887413,0.11958 l 0.08098,0.07074 0.0101,1.080984 c 0.0055,0.59454 8.07e-4,1.121351 -0.0101,1.170691 -0.0111,0.04934 -0.06639,0.125977 -0.122872,0.170306 l -0.102719,0.0806 h -0.668891 -0.668895 z m 1.312655,-0.652486 v -0.435984 l -0.464612,-0.0078 c -0.255537,-0.0043 -0.498214,-0.001 -0.53928,0.0073 -0.07339,0.0149 -0.07467,0.02237 -0.07467,0.432464 0,0.229515 0.01035,0.425773 0.02292,0.43613 0.01262,0.01036 0.255289,0.01547 0.53928,0.01135 l 0.516348,-0.0075 z m 0.0092,-1.168014 c 0.0062,-0.275493 -0.0029,-0.417119 -0.02897,-0.442797 -0.02913,-0.02883 -0.146336,-0.03775 -0.495995,-0.03775 -0.251805,0 -0.481456,0.0074 -0.510327,0.01654 -0.04469,0.01408 -0.05249,0.07824 -0.05249,0.431442 0,0.228197 0.01035,0.423377 0.02292,0.433734 0.01262,0.01036 0.25529,0.01547 0.539282,0.01135 l 0.516347,-0.0075 z m -8.25773,-4.33793 c -0.06132,-0.06067 -0.07652,-0.311283 -0.02383,-0.393459 0.06321,-0.09863 0.198485,-0.104023 0.287166,-0.01145 0.109004,0.113788 0.08475,0.356768 -0.0426,0.426585 -0.06215,0.03407 -0.17563,0.02293 -0.220707,-0.02167 z m 3.42818,-0.123688 c -0.05242,-0.04476 -0.05407,-0.178421 -0.0025,-0.204572 0.02144,-0.01087 0.158378,-0.03547 0.30435,-0.05466 0.370938,-0.04877 0.644353,-0.164918 0.842916,-0.358084 0.55523,-0.54014 0.514138,-0.524423 1.371109,-0.524423 0.794577,0 0.805813,0.0029 1.103638,0.282039 0.482378,0.452159 0.655931,0.545693 1.114668,0.600728 0.301805,0.03621 0.335101,0.05121 0.335101,0.150965 0,0.12291 -0.06741,0.147605 -0.357514,0.13098 -0.479753,-0.0275 -0.831334,-0.187411 -1.194682,-0.543402 -0.372444,-0.364899 -0.283553,-0.335196 -1.003169,-0.335196 -0.719621,0 -0.630725,-0.0297 -1.00317,0.335196 -0.367251,0.359811 -0.718392,0.518061 -1.203736,0.542491 -0.192336,0.0097 -0.276924,0.0036 -0.306975,-0.02206 z M 28.26204,67.061562 c -0.09881,-0.03058 -0.154456,-0.120835 -0.113356,-0.183895 0.03831,-0.05881 0.322265,-0.277595 0.360253,-0.277595 0.07645,0 0.174058,0.09137 0.174058,0.162949 0,0.149452 -0.274235,0.343937 -0.42096,0.298541 z m 2.339529,-0.100441 c -0.166485,-0.142621 -0.183915,-0.207384 -0.079,-0.293529 0.09994,-0.08207 0.15679,-0.06764 0.359036,0.0911 0.191152,0.150037 0.161735,0.304611 -0.05798,0.304611 -0.07544,0 -0.13451,-0.02718 -0.22206,-0.102183 z m -1.238245,-0.350328 c -0.379151,-0.07729 -0.679328,-0.389056 -0.679328,-0.70557 0,-0.296795 0.284406,-0.617817 0.612953,-0.691873 0.60235,-0.135769 1.144938,0.189733 1.144938,0.686859 0,0.09651 -0.02272,0.220165 -0.05054,0.274784 -0.06797,0.133585 -0.264729,0.308021 -0.42149,0.373685 -0.12623,0.05288 -0.476088,0.08871 -0.606538,0.06212 z m 0.496377,-0.353074 c 0.32738,-0.176128 0.264811,-0.642739 -0.0996,-0.742771 -0.3376,-0.09267 -0.712051,0.114888 -0.712051,0.394688 0,0.151178 0.197322,0.357657 0.381642,0.399346 0.106559,0.0241 0.342111,-0.004 0.430005,-0.05126 z M 27.665169,65.98383 c -0.05096,-0.06386 -0.05178,-0.07871 -0.008,-0.143057 0.04409,-0.06467 0.07066,-0.07259 0.268017,-0.07978 0.241205,-0.0088 0.326239,0.02821 0.326239,0.141954 0,0.105811 -0.09911,0.152147 -0.325419,0.152147 -0.183414,0 -0.209787,-0.0072 -0.260905,-0.07126 z m 3.281069,0.03856 c -0.02189,-0.01799 -0.03981,-0.07071 -0.03981,-0.117171 0,-0.12366 0.05223,-0.149869 0.298677,-0.149869 0.246448,0 0.298679,0.02621 0.298679,0.149869 0,0.123661 -0.05223,0.14987 -0.298679,0.14987 -0.126109,0 -0.235926,-0.01387 -0.258855,-0.0327 z m 4.291022,-0.01945 c -0.345038,-0.071 -0.580767,-0.317156 -0.580767,-0.606455 0,-0.126658 0.149138,-0.364111 0.277222,-0.441393 0.262759,-0.158537 0.611226,-0.170262 0.859593,-0.02893 0.25238,0.143626 0.373573,0.421143 0.290708,0.665682 -0.09262,0.273314 -0.516427,0.479065 -0.846756,0.41109 z m 0.423127,-0.382588 c 0.249479,-0.229239 -0.03683,-0.58742 -0.39251,-0.491038 -0.303854,0.08234 -0.327094,0.47052 -0.03435,0.57347 0.131485,0.04624 0.328142,0.0083 0.42684,-0.08243 z m -7.387761,-0.572313 c -0.08463,-0.07429 -0.153881,-0.141157 -0.153881,-0.148588 0,-0.05806 0.08924,-0.152887 0.146369,-0.155547 0.13084,-0.0061 0.169142,0.0078 0.293353,0.106316 0.196035,0.1555 0.159827,0.332896 -0.06795,0.332896 -0.03522,0 -0.133261,-0.06079 -0.217893,-0.135077 z m 2.235466,0.09412 c -0.07347,-0.07269 -0.04711,-0.176137 0.0706,-0.277046 0.150834,-0.129295 0.248337,-0.158494 0.34879,-0.104451 0.122748,0.06604 0.100797,0.160327 -0.06998,0.300552 -0.155983,0.128074 -0.274118,0.155442 -0.349416,0.08094 z m -1.066118,-0.358423 c -0.0288,-0.02854 -0.04548,-0.113336 -0.0454,-0.230533 1.23e-4,-0.153267 0.0116,-0.192506 0.06638,-0.226478 0.08185,-0.05079 0.141205,-0.05327 0.196097,-0.0082 0.0789,0.06478 0.119019,0.152321 0.119019,0.259649 0,0.193824 -0.215171,0.325424 -0.336099,0.205563 z"
               id="path585" /></g></g><circle
           style="fill:#b63688;fill-opacity:1;stroke:#000000;stroke-width:0.0132292;stroke-linejoin:round;stroke-miterlimit:6.5;stroke-dasharray:none"
           id="circle586"
           cx="430.72427"
           cy="1.0244839"
           r="0.25506243" /></g></g></g></svg>
