<?xml version="1.0" encoding="UTF-8" standalone="no"?>
<!-- Created with Inkscape (http://www.inkscape.org/) -->

<svg
   width="25.00099"
   height="25.20125"
   viewBox="0 0 6.6148451 6.6678307"
   version="1.1"
   id="svg1"
   xmlns="http://www.w3.org/2000/svg"
   xmlns:svg="http://www.w3.org/2000/svg">
  <defs
     id="defs1" />
  <g
     id="layer1">
    <g
       id="g3573"
       transform="translate(-4.2511793,-3.7558962)">
      <path
         style="fill:#b4277e;fill-opacity:1;stroke:#000000;stroke-width:0.0735618"
         d="m 5.586265,6.1930665 c -0.0579,-0.06163 -0.0567,-0.168222 0.003,-0.223854 0.0445,-0.04181 0.0516,-0.04216 0.9683,-0.04718 l 0.92346,-0.005 v -0.262755 c 0,-0.236881 -0.004,-0.269535 -0.0429,-0.331616 -0.0887,-0.142566 -0.28062,-0.194297 -0.43284,-0.116644 -0.0915,0.04669 -0.15286,0.140911 -0.16916,0.259859 -0.0206,0.150434 -0.12364,0.219769 -0.23837,0.160437 -0.0713,-0.03686 -0.0893,-0.09311 -0.0747,-0.233848 0.014,-0.136106 0.0873,-0.275532 0.19856,-0.378125 0.13873,-0.127877 0.24104,-0.166545 0.43822,-0.165629 0.1871,8.78e-4 0.2954,0.03838 0.4156,0.143913 l 0.071,0.06233 0.071,-0.06233 c 0.1202,-0.105539 0.22851,-0.143043 0.4156,-0.143913 0.19717,-8.78e-4 0.29948,0.03775 0.43821,0.165629 0.1113,0.102593 0.18452,0.242019 0.19857,0.378125 0.0146,0.140735 -0.004,0.19699 -0.0747,0.233848 -0.11474,0.05933 -0.21776,-0.01 -0.23838,-0.160437 -0.0163,-0.118948 -0.0776,-0.213166 -0.16916,-0.259859 -0.15222,-0.07765 -0.34417,-0.02593 -0.43284,0.116644 -0.0386,0.06208 -0.0428,0.09474 -0.0429,0.331616 l -1e-5,0.262755 0.92346,0.005 c 0.91665,0.005 0.92379,0.0053 0.96829,0.04718 0.0613,0.0576 0.0612,0.168879 -2.2e-4,0.226582 l -0.0451,0.04232 h -2.01465 -2.01467 z"
         id="path3503" />
      <path
         style="fill:none;stroke:#000000;stroke-width:0.0735618"
         d="m 5.300655,7.8495125 c -0.0598,-0.03431 -0.0863,-0.07791 -0.0863,-0.141929 0,-0.06584 0.0275,-0.109565 0.0899,-0.142796 0.0302,-0.01607 0.25747,-0.02265 0.7834,-0.02265 h 0.74089 v -0.221182 -0.221183 l -0.0924,-0.03437 c -0.24648,-0.09164 -0.50782,-0.261876 -0.64114,-0.417633 l -0.0674,-0.07879 h 1.61849 1.61849 l -0.0675,0.07879 c -0.13332,0.155757 -0.39466,0.325995 -0.64114,0.417636 l -0.0924,0.03437 v 0.221184 0.221183 h 0.74088 c 0.52594,0 0.75322,0.0066 0.7834,0.02264 0.0624,0.03323 0.0899,0.07696 0.0899,0.142795 0,0.06584 -0.0275,0.109566 -0.0899,0.142796 -0.0606,0.03226 -4.63078,0.03141 -4.68707,-8.78e-4 z"
         id="path3455" />
      <path
         style="fill:none;stroke:#000000;stroke-width:0.0735618"
         d="m 6.273825,9.7968685 c -0.0987,-0.05398 -0.11579,-0.156625 -0.0407,-0.244059 0.0467,-0.05437 0.0481,-0.05464 0.32177,-0.06096 l 0.27484,-0.0064 -0.006,-0.215659 -0.005,-0.215659 -0.0973,-0.03304 c -0.41498,-0.14088 -0.82529,-0.435182 -0.99794,-0.715773 l -0.0624,-0.101443 h 1.98489 1.9849 l -0.0624,0.101443 c -0.17265,0.280591 -0.58296,0.574893 -0.99797,0.715808 l -0.0973,0.03304 -0.005,0.215659 -0.005,0.215659 0.27484,0.0064 c 0.27368,0.0063 0.27505,0.0066 0.32177,0.06096 0.0748,0.08708 0.0609,0.189867 -0.0323,0.23806 -0.0468,0.02419 -0.25495,0.02839 -1.3844,0.02789 -0.92456,-4.41e-4 -1.34119,-0.0071 -1.36826,-0.02188 z"
         id="path3380" />
      <g
         id="g3565"
         style="stroke-width:0.1;stroke-dasharray:none"
         transform="translate(-0.38465095,-16.548563)">
        <g
           id="g3564"
           transform="translate(-188.61843,16.037012)"
           style="stroke-width:0.1;stroke-dasharray:none">
          <rect
             style="fill:none;fill-opacity:1;stroke:#000000;stroke-width:0.1;stroke-dasharray:none;stroke-dashoffset:0;stroke-opacity:1"
             id="rect3564"
             width="6.5148454"
             height="6.5678306"
             x="193.30426"
             y="4.3174477"
             ry="0.8396374" />
        </g>
      </g>
    </g>
  </g>
</svg>
