<?xml version="1.0" encoding="UTF-8" standalone="no"?>
<!-- Created with Inkscape (http://www.inkscape.org/) -->

<svg
   width="25.00099"
   height="25.20125"
   viewBox="0 0 6.6148451 6.6678307"
   version="1.1"
   id="svg1"
   inkscape:export-filename="16 Oct NEw\Multipurpose_Hall.svg"
   inkscape:export-xdpi="96"
   inkscape:export-ydpi="96"
   inkscape:version="1.3.2 (091e20e, 2023-11-25, custom)"
   sodipodi:docname="base 25x25.svg"
   xmlns:inkscape="http://www.inkscape.org/namespaces/inkscape"
   xmlns:sodipodi="http://sodipodi.sourceforge.net/DTD/sodipodi-0.dtd"
   xmlns="http://www.w3.org/2000/svg"
   xmlns:svg="http://www.w3.org/2000/svg">
  <sodipodi:namedview
     id="namedview1"
     pagecolor="#ffffff"
     bordercolor="#000000"
     borderopacity="0.25"
     inkscape:showpageshadow="2"
     inkscape:pageopacity="0.0"
     inkscape:pagecheckerboard="0"
     inkscape:deskcolor="#d1d1d1"
     inkscape:document-units="mm"
     inkscape:zoom="12.820952"
     inkscape:cx="8.0337248"
     inkscape:cy="16.262443"
     inkscape:window-width="1366"
     inkscape:window-height="705"
     inkscape:window-x="-8"
     inkscape:window-y="-8"
     inkscape:window-maximized="1"
     inkscape:current-layer="g5" />
  <defs
     id="defs1" />
  <g
     inkscape:label="Layer 1"
     inkscape:groupmode="layer"
     id="layer1">
    <g
       id="g3573"
       transform="translate(-4.2511793,-3.7558962)">
      <circle
         style="fill:#b4277e;fill-opacity:1;stroke:#000000;stroke-width:0.1;stroke-linejoin:round;stroke-miterlimit:6.5;stroke-dasharray:none"
         id="path374"
         cx="7.5345249"
         cy="6.8711872"
         r="0.64492184" />
      <path
         style="fill:none;fill-opacity:1;stroke:#000000;stroke-width:0.0674691;stroke-dasharray:none;stroke-opacity:1"
         d="m 4.822812,9.6246075 v -0.201132 h 0.158789 0.158788 v -1.176666 -1.176666 l 0.06189,-0.06189 0.06189,-0.06189 h 0.552095 0.552097 v 1.205064 c 0,0.662784 0.0058,1.220133 0.01285,1.238551 0.0076,0.01986 0.03778,0.03349 0.0741,0.03349 h 0.06125 v -1.605368 -1.60537 l 0.05464,-0.05132 0.05464,-0.05133 h 0.910516 0.910517 l 0.05109,0.05941 0.05109,0.0594 v 1.597293 1.597294 h 0.06125 c 0.03632,0 0.06648,-0.01363 0.0741,-0.03349 0.0071,-0.01842 0.01285,-0.575767 0.01285,-1.238552 v -1.205063 l 0.566346,6.64e-4 c 0.594396,7.42e-4 0.607087,0.0026 0.658162,0.0985 0.01787,0.03354 0.02463,0.366345 0.02463,1.212086 v 1.165844 h 0.148205 0.148202 v 0.201132 0.201132 H 7.532803 4.822808 Z M 7.956244,8.9047655 V 8.4072275 H 7.553978 7.151713 v 0.497538 0.497538 H 7.553978 7.956244 Z M 5.712028,8.5024995 V 8.3648825 H 5.574412 5.436795 v 0.137617 0.137618 h 0.137617 0.137616 z m 0.423437,0 V 8.3648825 H 5.997848 5.860232 v 0.137617 0.137618 h 0.137616 0.137617 z m 3.133433,0 V 8.3648825 H 9.13128 8.993664 v 0.137617 0.137618 H 9.13128 9.268898 Z m 0.423436,0 V 8.3648825 H 9.554717 9.4171 v 0.137617 0.137618 H 9.554717 9.692334 Z M 5.712028,8.0155485 V 7.8779315 H 5.574412 5.436795 v 0.137617 0.137617 h 0.137617 0.137616 z m 0.423437,-10e-4 v -0.138636 l -0.132323,0.0063 -0.132324,0.0063 -0.0063,0.132324 -0.0063,0.132325 h 0.138627 0.138627 z m 3.133433,10e-4 V 7.8779315 H 9.13128 8.993664 v 0.137617 0.137617 H 9.13128 9.268898 Z m 0.423436,-10e-4 v -0.138636 l -0.132324,0.0063 -0.132324,0.0063 -0.0063,0.132324 -0.0063,0.132325 h 0.138627 0.138628 z m -3.980306,-0.46477 v -0.13763 H 5.574412 5.436795 v 0.137618 0.137616 h 0.137617 0.137616 z m 0.423437,-0.001 v -0.138628 l -0.132323,0.0063 -0.132324,0.0063 -0.0063,0.132325 -0.0063,0.132324 h 0.138627 0.138627 z m 3.133433,0.001 V 7.4121605 H 9.13128 8.993664 v 0.137618 0.137616 H 9.13128 9.268898 Z m 0.423436,-0.001 v -0.138628 l -0.132324,0.0063 -0.132324,0.0063 -0.0063,0.132325 -0.0063,0.132324 H 9.553713 9.692341 Z M 7.77953,7.4938485 c 0.145711,-0.05452 0.293183,-0.193777 0.366721,-0.346301 0.06943,-0.144013 0.07263,-0.398384 0.0068,-0.543601 -0.155057,-0.342187 -0.555424,-0.496531 -0.893932,-0.344618 -0.14813,0.06648 -0.279971,0.197561 -0.346608,0.344618 -0.0658,0.145217 -0.06261,0.399588 0.0068,0.543601 0.156637,0.324876 0.523103,0.472414 0.860169,0.346301 z M 7.363432,7.1581115 V 7.0310805 H 7.236401 7.10937 v -0.169374 -0.169375 h 0.127031 0.127031 v -0.127031 -0.127031 h 0.169375 0.169374 v 0.127031 0.127031 h 0.127032 0.127031 v 0.169375 0.169374 H 7.829213 7.702181 v 0.127031 0.127031 H 7.532807 7.363432 Z"
         id="path227" />
      <g
         id="g374"
         style="stroke-width:0.1;stroke-dasharray:none"
         transform="translate(-0.38465095,-16.548563)">
        <g
           id="g373"
           transform="translate(-188.61843,16.037012)"
           style="stroke-width:0.1;stroke-dasharray:none">
          <rect
             style="fill:none;fill-opacity:1;stroke:#000000;stroke-width:0.1;stroke-dasharray:none;stroke-dashoffset:0;stroke-opacity:1"
             id="rect373"
             width="6.5148454"
             height="6.5678306"
             x="193.30426"
             y="4.3174477"
             ry="0.8396374" />
        </g>
      </g>
    </g>
  </g>
</svg>
